<svg xmlns="http://www.w3.org/2000/svg" viewBox="0 0 18.48 16"><defs><style>.cls-1{fill:#fff;}</style></defs><title>fastforward</title><g id="Layer_2" data-name="Layer 2"><g id="fastforward"><path class="cls-1" d="M6,3.68a6.41,6.41,0,0,1,2.19-.76L8,2.13A6.77,6.77,0,0,0,5.54,3Z"/><path class="cls-1" d="M11.31,3.3l.31-.74A6.8,6.8,0,0,0,9,2.05H9v.8H9A6.17,6.17,0,0,1,11.31,3.3Z"/><path class="cls-1" d="M9,15.19a6.16,6.16,0,0,1-3.79-11l-.5-.64a7,7,0,1,0,11.14,6.75l-.79-.16A6.16,6.16,0,0,1,9,15.19Z"/><path class="cls-1" d="M7.86.89,7.75.09A9,9,0,0,0,4.5,1.21l.41.7A8.16,8.16,0,0,1,7.86.89Z"/><path class="cls-1" d="M4,2.54l-.5-.64A9,9,0,0,0,1,5,8.91,8.91,0,0,0,0,9H.81A8.17,8.17,0,0,1,4,2.54Z"/><path class="cls-1" d="M12.12,1.41l.3-.75A8.94,8.94,0,0,0,9,0H9V.81H9A8.17,8.17,0,0,1,12.12,1.41Z"/><path class="cls-1" d="M18,3.84l-1.09.75h0c-.13-.22-.26-.44-.4-.65a9.23,9.23,0,0,0-3-2.74l-.41.7a8.28,8.28,0,0,1,2.7,2.5c.14.21.28.42.4.64s.26.5.37.76h0l.68-.46.06,0v.21h0l.19,2.33h0l.08.95L15.92,8,15,7.52l-.55-.26L14.85,7l.68-.47a7.59,7.59,0,0,0-.35-.77h0A7,7,0,0,0,12.51,3l-.4.7a6.2,6.2,0,0,1,2.4,2.52h0L12.87,7.34l2.29,1.11.84.41,1.23.6.79.38.46.22Z"/><polygon class="cls-1" points="11.32 8.63 9.36 8.63 9.36 6.68 8.55 6.68 8.55 8.63 6.6 8.63 6.6 9.44 8.55 9.44 8.55 11.39 9.36 11.39 9.36 9.44 11.32 9.44 11.32 8.63"/></g></g></svg>