<svg xmlns="http://www.w3.org/2000/svg" viewBox="0 0 18.48 16"><defs><style>.cls-1{fill:#fff;}</style></defs><title>rewind</title><g id="Layer_2" data-name="Layer 2"><g id="rewind"><path class="cls-1" d="M12.52,3.68a6.27,6.27,0,0,0-2.19-.76l.11-.79A6.65,6.65,0,0,1,12.93,3Z"/><path class="cls-1" d="M7.16,3.3l-.31-.74a6.85,6.85,0,0,1,2.6-.51h.07v.8H9.45A6.22,6.22,0,0,0,7.16,3.3Z"/><path class="cls-1" d="M9.45,15.19a6.16,6.16,0,0,0,3.79-11l.49-.64A7,7,0,1,1,2.59,10.28l.79-.16A6.17,6.17,0,0,0,9.45,15.19Z"/><path class="cls-1" d="M10.61.89l.11-.8A8.92,8.92,0,0,1,14,1.21l-.4.7A8.21,8.21,0,0,0,10.61.89Z"/><path class="cls-1" d="M14.5,2.54,15,1.9A9.27,9.27,0,0,1,17.53,5a8.91,8.91,0,0,1,.95,4h-.81A8.2,8.2,0,0,0,14.5,2.54Z"/><path class="cls-1" d="M6.36,1.41,6.06.66A8.9,8.9,0,0,1,9.45,0h.06V.81H9.45A8.14,8.14,0,0,0,6.36,1.41Z"/><path class="cls-1" d="M.5,3.84l1.09.75h0c.12-.22.26-.44.4-.65A9.13,9.13,0,0,1,5,1.2l.4.7a8.28,8.28,0,0,0-2.7,2.5c-.14.21-.27.42-.39.64a7.6,7.6,0,0,0-.37.76h0l-.68-.46-.06,0,0,.21h0L1,7.84H1l-.08.95L2.56,8l.91-.45L4,7.26,3.63,7l-.69-.47a7.59,7.59,0,0,1,.35-.77h0A7,7,0,0,1,6,3l.4.7A6.22,6.22,0,0,0,4,6.21H4L5.61,7.34,3.31,8.45l-.83.41-1.24.6-.78.38L0,10.06Z"/><line class="cls-1" x1="7.16" y1="9.04" x2="11.88" y2="9.04"/><rect class="cls-1" x="7.16" y="8.63" width="4.72" height="0.81"/></g></g></svg>